<?xml version="1.0" standalone="no"?>
<!DOCTYPE svg PUBLIC "-//W3C//DTD SVG 20010904//EN"
 "http://www.w3.org/TR/2001/REC-SVG-20010904/DTD/svg10.dtd">
<svg version="1.0" xmlns="http://www.w3.org/2000/svg"
 width="700.000000pt" height="700.000000pt" viewBox="0 0 700.000000 700.000000"
 preserveAspectRatio="xMidYMid meet">
<metadata>
Created by potrace 1.11, written by Peter Selinger 2001-2013
</metadata>
<g transform="translate(0.000000,700.000000) scale(0.100000,-0.100000)"
fill="#000000" stroke="none">
<path d="M3160 6778 c0 -2 25 -79 55 -171 30 -93 57 -178 60 -190 2 -12 14
-58 25 -102 19 -76 42 -197 56 -295 3 -25 7 -111 9 -192 3 -220 -30 -403 -112
-623 -55 -148 -148 -337 -255 -516 l-75 -126 49 -83 c27 -46 58 -105 68 -131
19 -47 53 -180 48 -184 -2 -1 -56 13 -120 31 -65 18 -130 35 -145 38 -365 67
-430 74 -673 70 -102 -1 -196 -5 -210 -7 -14 -3 -47 -8 -73 -12 -53 -7 -66 -9
-142 -25 -27 -6 -60 -12 -73 -15 -104 -19 -348 -114 -482 -187 -292 -158 -600
-430 -836 -738 -71 -93 -116 -160 -107 -160 4 0 40 12 78 26 127 46 360 113
470 135 174 35 263 44 435 43 145 -1 171 -4 360 -40 63 -12 253 -78 350 -121
62 -28 252 -125 302 -154 27 -16 50 -29 52 -29 1 0 40 -22 86 -50 l82 -49 42
27 c71 47 190 94 277 109 62 10 74 9 70 -7 -2 -8 -14 -55 -28 -105 -48 -177
-81 -353 -101 -530 -9 -84 -9 -436 1 -520 6 -57 22 -144 52 -285 19 -89 94
-282 162 -415 163 -320 458 -644 837 -918 43 -32 80 -56 82 -54 2 2 -17 63
-42 137 -73 217 -124 414 -139 539 -4 30 -9 63 -12 75 -2 12 -6 87 -7 167 -6
318 57 559 242 924 36 72 96 180 132 240 l66 110 -47 100 c-46 97 -83 212 -92
286 l-4 36 106 -29 c111 -31 297 -72 372 -82 24 -3 54 -8 67 -11 107 -20 499
-28 637 -12 78 9 281 51 335 69 19 7 40 13 46 14 26 4 249 97 293 122 25 14
55 30 66 36 288 153 619 462 866 808 32 45 57 83 56 85 -2 1 -71 -20 -153 -47
-344 -112 -561 -154 -804 -155 -209 0 -371 27 -567 97 -156 55 -421 189 -608
307 l-60 37 -120 -60 c-160 -80 -145 -74 -233 -91 -13 -2 -32 -7 -43 -10 -26
-8 -25 11 6 115 24 84 68 287 79 365 3 22 8 56 11 75 20 130 28 498 12 580 -3
14 -8 49 -11 78 -4 30 -11 73 -16 95 -5 23 -12 58 -15 77 -32 189 -153 473
-291 685 -127 197 -351 443 -544 600 -47 38 -87 72 -90 75 -14 16 -170 123
-170 118z m449 -3072 c55 -26 108 -88 122 -140 27 -101 -14 -220 -93 -269 -54
-33 -140 -45 -204 -28 -89 24 -166 127 -167 225 -1 68 23 115 89 176 80 72
156 83 253 36z"/>
</g>
</svg>
