<svg viewBox="0 0 512 512" xmlns="http://www.w3.org/2000/svg">
  <path
    d="m256 50.144531c-39.113281 98.125-107.730469 166.742188-205.855469 205.855469 98.125 39.113281 166.742188 107.730469 205.855469 205.855469 39.113281-98.125 107.730469-166.742188 205.855469-205.855469-98.125-39.113281-166.742188-107.730469-205.855469-205.855469zm0 241.855469c-19.882812 0-36-16.117188-36-36s16.117188-36 36-36 36 16.117188 36 36-16.117188 36-36 36zm0 0"
    fill="#23272b" />
  <path
    d="m256 220c19.882812 0 36 16.117188 36 36s-16.117188 36-36 36v169.855469c39.113281-98.125 107.730469-166.742188 205.855469-205.855469-98.125-39.113281-166.742188-107.730469-205.855469-205.855469zm0 0"
    fill="#23272b" /></svg>